# xmcd CD database file
#
# Track frame offsets:
#	150
#	22521
#	47117
#	69527
#	95252
#	113961
#	126541
#	148666
#	172056
#	196184
#
# Disc length: 2932 seconds
#
# Revision: 0
# Processed by: cddbd v1.5.1PL2 Copyright (c) Steve Scherf et al.
# Submitted via: CDex 1.51
#
DISCID=8a0b720a
DTITLE=I'm Not A Gun - We Think As Instruments
DYEAR=2006
DGENRE=Jazz
TTITLE0=Soft Rain In The Spring
TTITLE1=Ripples In The Water
TTITLE2=Move
TTITLE3=Long Afternoon
TTITLE4=A Letter From The Past
TTITLE5=Rush Hour Traffic
TTITLE6=Unseen Moment
TTITLE7=Blue Garden
TTITLE8=As Far As Forever Goes
TTITLE9=Continuous Sky
EXTD=YEAR: 2006
EXTT0=
EXTT1=
EXTT2=
EXTT3=
EXTT4=
EXTT5=
EXTT6=
EXTT7=
EXTT8=
EXTT9=
PLAYORDER=
